# xmcd
#
# Track frame offsets:
#	150
#	10875
#	17198
#	29093
#	47077
#	53357
#	61351
#	74347
#	93181
#	97817
#	110047
#	114767
#	123835
#	145663
#	159452
#	163475
#	179118
#	191334
#	200498
#	208339
#	214703
#	220873
#	226833
#	247240
#	259303
#	271059
#	274359
#	286436
#	289428
#	296934
#	314806
#	324820
#	332258
#
# Disc length: 4493 seconds
#
# Revision: 0
# Processed by: cddbd v1.5.1PL2 Copyright (c) Steve Scherf et al.
# Submitted via: EasyCDDAExtractor 8.1.2.3
#
DISCID=06118b21
DTITLE=Sefyu - Molotov 4
DYEAR=2005
DGENRE=Rap
TTITLE0=Intro (RR)
TTITLE1=Sefyu-J'vais pas te t'mentir
TTITLE2=Suzax avec ST4 Clan-68 explici
TTITLE3=VNR avec RR-extrait de la comp
TTITLE4=NCC-Molotov4
TTITLE5=Suzax-5 etoiles
TTITLE6=ST4 Clan-ST4
TTITLE7=NCC-93- (2000)
TTITLE8=Interlude soul
TTITLE9=Sefyu avec RR-Style libre
TTITLE10=NCC-extrait de la mixtape PSG2
TTITLE11=NCC-93600
TTITLE12=Sefyu avec Kuamen (NCC)-La vie
TTITLE13=KDF-au bord d'la misere
TTITLE14=Code 187 extrait de l'album de
TTITLE15=ASB
TTITLE16=Flow Du Malawi
TTITLE17=Freestyle
TTITLE18=Jour Noir
TTITLE19=Ghetto Carnage
TTITLE20=La Rue
TTITLE21=La Rue 2
TTITLE22=Crimes Impunis
TTITLE23=Molotov
TTITLE24=Artillerie Lourde
TTITLE25=Premier Contact Avec Les Flics
TTITLE26=Inconscience
TTITLE27=Baiser
TTITLE28=Farafines
TTITLE29=La Lutte Libere
TTITLE30=La Seine Saint-Denis
TTITLE31=Le Dernier Morceau Que T'écout
TTITLE32=Le Mot De La Fin (Outro)
EXTD=
EXTT0=
EXTT1=
EXTT2=
EXTT3=
EXTT4=
EXTT5=
EXTT6=
EXTT7=
EXTT8=
EXTT9=
EXTT10=
EXTT11=
EXTT12=
EXTT13=
EXTT14=
EXTT15=
EXTT16=
EXTT17=
EXTT18=
EXTT19=
EXTT20=
EXTT21=
EXTT22=
EXTT23=
EXTT24=
EXTT25=
EXTT26=
EXTT27=
EXTT28=
EXTT29=
EXTT30=
EXTT31=
EXTT32=
PLAYORDER=
